<svg width="150" height="150" viewBox="0 0 150 150" fill="none" xmlns="http://www.w3.org/2000/svg">
<path d="M111.433 23.2805L107.733 19.4805C107.733 19.4805 99.433 14.2805 97.233 13.2805C95.033 12.2805 92.933 12.5805 90.833 14.4805C88.833 16.0805 78.133 26.9805 77.733 27.9805C76.133 29.7805 76.233 32.3805 77.233 34.0805L82.233 43.5805L86.533 48.8805L13.133 118.08C10.933 120.18 10.633 123.98 14.033 128.78C16.433 132.28 21.833 137.28 26.733 137.28C28.333 137.28 29.933 136.78 31.033 135.68C36.233 130.78 83.233 81.9805 100.233 63.1805L106.933 69.7805C106.933 69.7805 111.233 72.2805 116.733 74.7805C118.433 75.6805 120.833 76.4805 122.933 74.2805C124.433 73.2805 136.033 62.0805 137.533 59.8805C138.633 58.2805 138.933 56.0805 137.833 54.2805L132.833 45.0805L126.533 38.2805L127.433 37.4805C128.433 36.4805 128.833 34.4805 128.433 33.2805C127.733 31.2805 121.833 24.9805 117.733 21.9805C116.533 21.2805 114.433 21.2805 113.233 22.2805L111.433 23.5805V23.2805Z" fill="#060404"/>
<path d="M88.233 50.7805L14.633 119.98C12.133 122.48 15.433 127.98 18.433 130.68C21.333 133.28 26.133 136.48 29.033 133.98C33.133 130.28 86.733 74.9805 98.533 61.4805L88.133 50.7805H88.233Z" fill="#8C5D37"/>
<path d="M85.8329 55.0805L84.3329 54.2805L14.6329 119.88C13.1329 121.48 14.0329 123.98 15.1329 126.48C15.7329 121.98 18.1329 120.68 19.4329 119.48C25.1329 113.98 41.9329 96.2805 50.0329 88.9805C60.2329 79.7805 78.6329 65.4805 85.5329 56.2805L85.8329 56.4805L86.2329 55.7805L85.8329 55.0805Z" fill="#A17955"/>
<path d="M86.2329 55.7805L85.0329 54.2805L82.6329 55.9805C85.3329 58.0805 83.0329 56.9805 83.0329 57.0805C72.2329 68.7805 48.0329 85.6805 17.1329 123.68C16.5329 124.68 20.8329 128.08 23.1329 128.28C26.5329 128.58 29.4329 125.78 34.0329 121.98C42.6329 114.48 73.8329 82.9805 80.5329 75.4805C88.6329 66.0805 89.3329 64.7805 89.4329 63.7805C89.8329 61.0805 88.8329 57.7805 86.2329 55.7805Z" fill="#774725"/>
<path d="M113.133 25.0805L124.733 36.5805L125.833 36.2805C126.533 35.5805 126.733 34.4805 126.033 33.6805C124.033 30.4805 119.133 25.7805 116.633 24.0805C116.033 23.7805 115.433 23.7805 115.033 24.0805L113.233 24.9805L113.133 25.0805Z" fill="#8C5D37"/>
<path d="M122.433 28.7805L121.433 29.8805L122.033 33.4805L122.433 33.8805L123.333 32.7805C124.433 31.7805 123.333 30.2805 122.433 28.7805ZM124.433 36.4805L124.833 36.5805L125.533 36.2805C126.433 35.4805 126.433 34.7805 126.033 33.9805L125.633 33.5805L124.433 36.4805Z" fill="#774725"/>
<path d="M114.433 26.7805L115.333 26.4805C116.533 25.7805 117.033 25.4805 118.433 25.9805C120.633 26.9805 120.633 26.7805 120.633 26.7805C120.633 26.7805 118.633 24.7805 117.033 23.9805C115.433 23.2805 113.633 25.0805 113.133 25.4805L114.433 26.7805Z" fill="#A17955"/>
<path d="M83.933 40.5805L79.433 32.5805C78.833 31.4805 79.633 29.7805 80.233 29.2805L93.233 16.2805C94.033 15.4805 95.333 14.9805 96.333 15.4805C99.033 16.5805 105.333 20.7805 105.333 20.7805V20.8805C102.033 22.8805 91.233 30.7805 83.933 40.5805Z" fill="#53555B"/>
<path d="M80.8329 28.0805C83.0329 27.4805 86.2329 24.9805 88.1329 23.4805C90.8329 21.4805 93.4329 17.8805 95.0329 17.7805L101.833 21.0805C102.633 21.5805 102.233 23.2805 101.533 23.5805L105.333 20.7805C105.333 20.7805 99.0329 16.5805 96.3329 15.4805C95.3329 14.9805 94.0329 15.4805 93.2329 16.2805L80.8329 28.0805Z" fill="#676B72"/>
<path d="M84.433 42.2805C88.633 35.2805 99.433 25.9805 106.033 21.4805L130.033 45.5805C125.333 52.9805 114.333 63.2805 108.933 67.8805C101.533 61.0805 88.533 47.9805 84.433 42.2805Z" fill="#53555B"/>
<path d="M109.033 64.2805C101.633 58.4805 89.433 46.2805 85.533 40.4805L84.433 42.2805C88.533 47.9805 101.633 60.9805 107.933 66.9805L108.933 67.8805C114.533 65.2805 125.533 53.9805 129.833 47.9805C123.633 54.0805 112.833 63.7805 108.533 64.4805L109.033 64.2805Z" fill="#3E4046"/>
<path d="M109.033 68.2805C114.333 65.7805 125.833 54.9805 131.033 47.2805L135.833 55.4805C136.333 56.5805 136.033 57.9805 135.433 58.7805C134.033 60.0805 121.033 73.2805 120.333 73.2805C119.333 73.5805 118.833 73.4805 117.533 72.8805C113.533 70.9805 109.033 68.2805 109.033 68.2805Z" fill="#53555B"/>
<path d="M135.833 55.4805L135.333 54.5805C135.433 55.7805 134.533 56.7805 133.833 57.7805C131.433 60.2805 122.533 68.7805 120.033 69.5805C118.933 69.9805 114.833 67.5805 114.533 67.2805L114.033 67.8805L109.033 68.2805C109.033 68.2805 112.833 70.9805 117.533 72.8805C118.833 73.4805 119.433 73.5805 120.333 73.2805C121.033 73.2805 134.033 60.0805 135.433 58.7805C136.033 57.9805 136.433 56.4805 135.833 55.4805Z" fill="#3E4046"/>
<path d="M92.5329 33.0805C96.5329 29.5805 101.833 24.7805 106.033 21.4805L130.033 45.5805L129.333 46.4805L105.633 24.7805C101.533 25.7805 97.5329 28.9805 92.5329 33.0805Z" fill="#9FA3AB"/>
<path d="M114.333 66.4805L115.033 67.5805V67.0805V66.9805L114.533 66.4805H114.333ZM134.533 53.9805L131.033 47.2805L130.633 47.5805L133.633 53.5805L134.533 53.9805Z" fill="#676B72"/>
<path d="M109.033 68.2805L109.433 68.5805C113.533 66.9805 124.333 57.2805 130.333 48.9805C125.333 54.2805 117.033 62.9805 109.033 68.2805Z" fill="#3E4046"/>
<path d="M108.533 67.9805H109.333L109.533 67.4805C109.533 67.4805 120.333 60.5805 130.033 45.7805L131.033 47.2805C127.333 53.4805 114.533 65.9805 109.033 68.2805L108.533 67.9805Z" fill="#060404"/>
<path d="M79.433 30.2805C79.033 30.9805 79.033 31.7805 79.433 32.5805L83.533 40.7805L84.433 39.2805C82.833 36.7805 80.333 33.2805 79.433 30.2805Z" fill="#3E4046"/>
<path d="M15.4329 127.08L15.8329 127.88C16.5329 128.98 17.5329 129.98 18.4329 130.78C20.4329 132.78 25.0329 136.08 28.0329 135.08C30.6329 133.98 40.8329 123.98 48.6329 115.48C37.1329 126.48 29.1329 134.28 28.8329 134.48C27.1329 135.48 23.5329 134.48 20.4329 131.98L18.0329 129.78L15.3329 126.78L15.4329 127.08Z" fill="#774725"/>
</svg>
